<svg width="36" height="36" enable-background="new 0 0 36 36" viewBox="0 0 36 36" xmlns="http://www.w3.org/2000/svg"><path d="m0 0h36v36h-36z" fill="none"/><path d="m14.6 27.1c7.9 0 12.3-6.6 12.3-12.3 0-.2 0-.4 0-.6.8-.6 1.6-1.4 2.1-2.2-.8.3-1.6.6-2.5.7.9-.5 1.6-1.4 1.9-2.4-.8.5-1.8.9-2.7 1-1.6-1.7-4.4-1.8-6.1-.2-1.1 1.1-1.6 2.6-1.2 4.1-3.5-.2-6.7-1.8-8.9-4.5-1.1 2-.6 4.5 1.3 5.8-.7 0-1.4-.2-2-.5v.1c0 2.1 1.4 3.8 3.5 4.2-.6.2-1.3.2-1.9.1.6 1.8 2.2 3 4 3-1.5 1.2-3.4 1.8-5.4 1.8-.3 0-.7 0-1-.1 2 1.3 4.3 2 6.6 2" fill="#555655"/></svg>