<svg width="36" height="36" enable-background="new 0 0 36 36" viewBox="0 0 36 36" xmlns="http://www.w3.org/2000/svg"><g clip-rule="evenodd"><path d="m18 7.3c-6.1 0-11 4.9-11 11 0 4.9 3.2 9 7.5 10.4.6.1.8-.2.8-.5s0-1 0-1.9c-3.1.7-3.7-1.5-3.7-1.5-.5-1.3-1.2-1.6-1.2-1.6-1-.7.1-.7.1-.7 1.1.1 1.7 1.1 1.7 1.1 1 1.7 2.6 1.2 3.2.9.1-.7.4-1.2.7-1.5-2.4-.3-5-1.2-5-5.4 0-1.2.4-2.2 1.1-3-.1-.3-.5-1.4.1-2.9 0 0 .9-.3 3 1.1.9-.2 1.8-.4 2.8-.4.9 0 1.9.1 2.8.4 2.1-1.4 3-1.1 3-1.1.6 1.5.2 2.6.1 2.9.7.8 1.1 1.8 1.1 3 0 4.2-2.6 5.2-5 5.4.4.3.7 1 .7 2v3c0 .3.2.6.8.5 4.4-1.5 7.5-5.6 7.5-10.4-.1-5.9-5-10.8-11.1-10.8z" fill="#555655" fill-rule="evenodd"/><path d="m0 0h36v36h-36z" fill="none"/></g></svg>