<?xml version="1.0" encoding="utf-8"?>
<!-- Generator: Adobe Illustrator 23.0.4, SVG Export Plug-In . SVG Version: 6.00 Build 0)  -->
<svg version="1.1" id="Layer_1" xmlns="http://www.w3.org/2000/svg" xmlns:xlink="http://www.w3.org/1999/xlink" x="0px" y="0px"
	 viewBox="0 0 286 64" style="enable-background:new 0 0 286 64;" xml:space="preserve">
<style type="text/css">
	.st0{clip-path:url(#SVGID_2_);}
	.st1{fill:url(#SVGID_3_);}
	.st2{clip-path:url(#SVGID_5_);}
	.st3{fill:url(#SVGID_6_);}
	.st4{fill:#425066;}
</style>
<g>
	<g>
		<g>
			<defs>
				<polygon id="SVGID_1_" points="47.5,17.6 25,4.8 25,57.4 34,52.2 34,37.4 40.8,41.3 40.7,31.2 34,27.3 34,21.4 47.5,29.3 				
					"/>
			</defs>
			<clipPath id="SVGID_2_">
				<use xlink:href="#SVGID_1_"  style="overflow:visible;"/>
			</clipPath>
			<g class="st0">
				
					<linearGradient id="SVGID_3_" gradientUnits="userSpaceOnUse" x1="-1.6" y1="-269.05" x2="53.6" y2="-269.05" gradientTransform="matrix(1 0 0 -1 0 -238)">
					<stop  offset="0" style="stop-color:#FF6F00"/>
					<stop  offset="1" style="stop-color:#FFA800"/>
				</linearGradient>
				<path class="st1" d="M-1.6,4.6h55.2v52.9H-1.6V4.6z"/>
			</g>
		</g>
	</g>
</g>
<g>
	<g>
		<g>
			<defs>
				<polygon id="SVGID_4_" points="0.5,17.6 23,4.8 23,57.4 14,52.2 14,21.4 0.5,29.3 				"/>
			</defs>
			<clipPath id="SVGID_5_">
				<use xlink:href="#SVGID_4_"  style="overflow:visible;"/>
			</clipPath>
			<g class="st2">
				
					<linearGradient id="SVGID_6_" gradientUnits="userSpaceOnUse" x1="-1.9" y1="-269.05" x2="53.3" y2="-269.05" gradientTransform="matrix(1 0 0 -1 0 -238)">
					<stop  offset="0" style="stop-color:#FF6F00"/>
					<stop  offset="1" style="stop-color:#FFA800"/>
				</linearGradient>
				<path class="st3" d="M-1.9,4.6h55.2v52.9H-1.9V4.6z"/>
			</g>
		</g>
	</g>
</g>
<path class="st4" d="M88.2,21.1h-10v27.7h-5.6V21.1h-10v-4.5h25.6V21.1z"/>
<path class="st4" d="M94.9,49.2c-3.4,0-6.2-1.1-8.3-3.2c-2.1-2.1-3.2-5-3.2-8.6v-0.7c0-2.2,0.4-4.4,1.4-6.4c0.9-1.8,2.2-3.3,3.9-4.4
	c1.7-1.1,3.6-1.6,5.6-1.6c3.3,0,5.8,1,7.6,3.1s2.7,5,2.7,8.8v2.2H88.9c0.1,1.8,0.8,3.4,2,4.7c1.2,1.2,2.7,1.8,4.4,1.7
	c2.4,0.1,4.6-1.1,6-3l2.9,2.8c-1,1.4-2.3,2.6-3.8,3.3C98.6,48.9,96.8,49.3,94.9,49.2z M94.3,28.7c-1.4-0.1-2.7,0.5-3.6,1.5
	c-1,1.2-1.6,2.7-1.7,4.3h10.3v-0.4c-0.1-1.8-0.6-3.2-1.4-4.1C96.9,29.2,95.6,28.6,94.3,28.7z M113.7,24.8l0.2,2.8
	c1.7-2.1,4.3-3.3,7-3.2c5,0,7.5,2.9,7.6,8.6v15.8h-5.4V33.3c0-1.5-0.3-2.6-1-3.4c-0.7-0.7-1.7-1.1-3.2-1.1c-2.1-0.1-4,1.1-4.9,2.9
	v17h-5.4v-24C108.6,24.7,113.7,24.8,113.7,24.8z M145.9,42.3c0-0.9-0.4-1.7-1.2-2.2c-1.2-0.7-2.6-1.1-3.9-1.3
	c-1.6-0.3-3.1-0.8-4.6-1.5c-2.7-1.3-4-3.2-4-5.6c0-2,1-4,2.6-5.2c1.7-1.4,4-2.1,6.6-2.1c2.9,0,5.2,0.7,6.9,2.1
	c1.7,1.3,2.7,3.4,2.6,5.5h-5.4c0-1-0.4-1.9-1.2-2.6c-0.9-0.7-1.9-1.1-3.1-1c-1,0-2,0.2-2.9,0.8c-0.7,0.5-1.1,1.3-1.1,2.2
	c0,0.8,0.4,1.5,1,1.9c0.7,0.5,2.1,0.9,4.2,1.4c1.7,0.3,3.4,0.9,5,1.7c1.1,0.5,2,1.3,2.7,2.3c0.6,1,0.9,2.1,0.9,3.3
	c0,2.1-1,4-2.7,5.2c-1.8,1.3-4.1,2-7,2c-1.8,0-3.6-0.3-5.2-1.1c-1.4-0.6-2.7-1.6-3.6-2.9c-0.8-1.2-1.3-2.6-1.3-4h5.2
	c0,1.1,0.5,2.2,1.4,2.9c1,0.7,2.3,1.1,3.5,1c1.4,0,2.5-0.3,3.2-0.8C145.5,43.9,145.9,43.1,145.9,42.3L145.9,42.3z M154,36.6
	c0-2.2,0.4-4.4,1.4-6.3c0.9-1.8,2.2-3.3,3.9-4.3c1.8-1,3.8-1.6,5.8-1.5c3.2,0,5.9,1,7.9,3.1s3.1,4.8,3.3,8.3v1.3
	c0,2.2-0.4,4.3-1.4,6.3c-0.8,1.8-2.2,3.3-3.9,4.3c-1.8,1-3.8,1.6-5.9,1.5c-3.4,0-6.1-1.1-8.1-3.4c-2-2.2-3-5.2-3.1-9L154,36.6z
	 M159.3,37.1c0,2.5,0.5,4.4,1.5,5.8c1.8,2.3,5.1,2.8,7.5,1c0.4-0.3,0.7-0.6,1-1c1-1.4,1.5-3.5,1.5-6.2c0-2.4-0.5-4.3-1.6-5.8
	c-1.7-2.3-5-2.8-7.4-1.1c-0.4,0.3-0.8,0.7-1.1,1C159.9,32.2,159.3,34.3,159.3,37.1z M192.4,29.8c-0.7-0.1-1.5-0.2-2.2-0.2
	c-2.5,0-4.1,0.9-5,2.8v16.4h-5.4v-24h5.1l0.1,2.7c1.3-2.1,3.1-3.1,5.4-3.1c0.6,0,1.3,0.1,1.9,0.3L192.4,29.8L192.4,29.8z
	 M214.9,35.1h-13v13.7h-5.6V16.6h20.5v4.5h-14.9v9.6h13V35.1z M225.6,48.8h-5.4V16.5h5.4C225.6,16.5,225.6,48.8,225.6,48.8z
	 M229.5,36.6c0-2.2,0.4-4.4,1.4-6.3c0.9-1.8,2.2-3.3,3.9-4.3c1.8-1,3.8-1.6,5.8-1.5c3.2,0,5.9,1,7.9,3.1s3.1,4.8,3.3,8.3v1.3
	c0,2.2-0.4,4.3-1.3,6.3c-0.8,1.8-2.2,3.3-3.9,4.3c-1.8,1-3.8,1.6-5.9,1.5c-3.4,0-6.1-1.1-8.1-3.4c-2-2.2-3.1-5.2-3.1-9L229.5,36.6
	L229.5,36.6z M234.9,37.1c0,2.5,0.5,4.4,1.5,5.8c1,1.4,2.6,2.2,4.3,2.1c1.7,0.1,3.3-0.7,4.2-2.1c1-1.4,1.5-3.5,1.5-6.2
	c0-2.4-0.5-4.3-1.6-5.8c-1.7-2.3-5-2.8-7.4-1.1c-0.4,0.3-0.8,0.7-1.1,1C235.4,32.2,234.9,34.3,234.9,37.1z M276.1,41.4l3.8-16.5h5.2
	l-6.5,24h-4.4l-5.1-16.5L264,48.9h-4.4l-6.6-24h5.3l3.9,16.4l4.9-16.4h4.1L276.1,41.4L276.1,41.4z"/>
</svg>
