<?xml version="1.0" encoding="utf-8"?>
<!-- Generator: Adobe Illustrator 23.0.4, SVG Export Plug-In . SVG Version: 6.00 Build 0)  -->
<svg version="1.1" id="Layer_1" xmlns="http://www.w3.org/2000/svg" xmlns:xlink="http://www.w3.org/1999/xlink" x="0px" y="0px"
	 viewBox="0 0 376 64" style="enable-background:new 0 0 376 64;" xml:space="preserve">
<style type="text/css">
	.st0{fill:#425066;}
	.st1{clip-path:url(#SVGID_2_);}
	.st2{fill:url(#SVGID_3_);}
	.st3{clip-path:url(#SVGID_5_);}
	.st4{fill:url(#SVGID_6_);}
</style>
<path class="st0" d="M88.5,21.1h-10v27.7h-5.6V21.1h-10v-4.5h25.6V21.1z"/>
<path class="st0" d="M95.2,49.2c-3.4,0-6.2-1.1-8.3-3.2c-2.1-2.1-3.2-5-3.2-8.6v-0.7c0-2.2,0.4-4.4,1.4-6.4c0.9-1.8,2.2-3.3,3.9-4.4
	c1.7-1.1,3.6-1.6,5.6-1.6c3.3,0,5.8,1,7.6,3.1s2.7,5,2.7,8.8v2.2H89.2c0.1,1.8,0.8,3.4,2,4.7c1.2,1.2,2.7,1.8,4.4,1.7
	c2.4,0.1,4.6-1.1,6-3l2.9,2.8c-1,1.4-2.3,2.6-3.8,3.3C98.9,48.9,97.1,49.3,95.2,49.2z M94.6,28.7c-1.4-0.1-2.7,0.5-3.6,1.5
	c-1,1.2-1.6,2.7-1.7,4.3h10.3v-0.4c-0.1-1.8-0.6-3.2-1.4-4.1C97.2,29.2,95.9,28.6,94.6,28.7z M114,24.8l0.2,2.8
	c1.7-2.1,4.3-3.3,7-3.2c5,0,7.5,2.9,7.6,8.6v15.8h-5.4V33.3c0-1.5-0.3-2.6-1-3.4c-0.7-0.7-1.7-1.1-3.2-1.1c-2.1-0.1-4,1.1-4.9,2.9
	v17h-5.4v-24C108.9,24.7,114,24.8,114,24.8z M146.2,42.3c0-0.9-0.4-1.7-1.2-2.2c-1.2-0.7-2.6-1.1-3.9-1.3c-1.6-0.3-3.1-0.8-4.6-1.5
	c-2.7-1.3-4-3.2-4-5.6c0-2,1-4,2.6-5.2c1.7-1.4,4-2.1,6.6-2.1c2.9,0,5.2,0.7,6.9,2.1c1.7,1.3,2.7,3.4,2.6,5.5h-5.4
	c0-1-0.4-1.9-1.2-2.6c-0.9-0.7-1.9-1.1-3.1-1c-1,0-2,0.2-2.9,0.8c-0.7,0.5-1.1,1.3-1.1,2.2c0,0.8,0.4,1.5,1,1.9
	c0.7,0.5,2.1,0.9,4.2,1.4c1.7,0.3,3.4,0.9,5,1.7c1.1,0.5,2,1.3,2.7,2.3c0.6,1,0.9,2.1,0.9,3.3c0,2.1-1,4-2.7,5.2c-1.8,1.3-4.1,2-7,2
	c-1.8,0-3.6-0.3-5.2-1.1c-1.4-0.6-2.7-1.6-3.6-2.9c-0.8-1.2-1.3-2.6-1.3-4h5.2c0,1.1,0.5,2.2,1.4,2.9c1,0.7,2.3,1.1,3.5,1
	c1.4,0,2.5-0.3,3.2-0.8C145.8,43.9,146.2,43.1,146.2,42.3L146.2,42.3z M154.3,36.6c0-2.2,0.4-4.4,1.4-6.3c0.9-1.8,2.2-3.3,3.9-4.3
	c1.8-1,3.8-1.6,5.8-1.5c3.2,0,5.9,1,7.9,3.1s3.1,4.8,3.3,8.3v1.3c0,2.2-0.4,4.3-1.4,6.3c-0.8,1.8-2.2,3.3-3.9,4.3
	c-1.8,1-3.8,1.6-5.9,1.5c-3.4,0-6.1-1.1-8.1-3.4c-2-2.2-3-5.2-3.1-9L154.3,36.6z M159.6,37.1c0,2.5,0.5,4.4,1.5,5.8
	c1.8,2.3,5.1,2.8,7.5,1c0.4-0.3,0.7-0.6,1-1c1-1.4,1.5-3.5,1.5-6.2c0-2.4-0.5-4.3-1.6-5.8c-1.7-2.3-5-2.8-7.4-1.1
	c-0.4,0.3-0.8,0.7-1.1,1C160.2,32.2,159.6,34.3,159.6,37.1z M192.7,29.8c-0.7-0.1-1.5-0.2-2.2-0.2c-2.5,0-4.1,0.9-5,2.8v16.4h-5.4
	v-24h5.1l0.1,2.7c1.3-2.1,3.1-3.1,5.4-3.1c0.6,0,1.3,0.1,1.9,0.3L192.7,29.8L192.7,29.8z M215.2,35.1h-13v13.7h-5.6V16.6h20.5v4.5
	h-14.9v9.6h13V35.1z M225.9,48.8h-5.4V16.5h5.4V48.8z M229.8,36.6c0-2.2,0.4-4.4,1.4-6.3c0.9-1.8,2.2-3.3,3.9-4.3
	c1.8-1,3.8-1.6,5.8-1.5c3.2,0,5.9,1,7.9,3.1s3.1,4.8,3.3,8.3v1.3c0,2.2-0.4,4.3-1.3,6.3c-0.8,1.8-2.2,3.3-3.9,4.3
	c-1.8,1-3.8,1.6-5.9,1.5c-3.4,0-6.1-1.1-8.1-3.4c-2-2.2-3.1-5.2-3.1-9L229.8,36.6L229.8,36.6z M235.2,37.1c0,2.5,0.5,4.4,1.5,5.8
	c1,1.4,2.6,2.2,4.3,2.1c1.7,0.1,3.3-0.7,4.2-2.1c1-1.4,1.5-3.5,1.5-6.2c0-2.4-0.5-4.3-1.6-5.8c-1.7-2.3-5-2.8-7.4-1.1
	c-0.4,0.3-0.8,0.7-1.1,1C235.7,32.2,235.2,34.3,235.2,37.1z M276.4,41.4l3.8-16.5h5.2l-6.5,24h-4.4l-5.1-16.5l-5.1,16.5h-4.4
	l-6.6-24h5.3l3.9,16.4l4.9-16.4h4.1L276.4,41.4L276.4,41.4z"/>
<path class="st0" d="M299.5,48.8V16.6h9.5c3.4,0,6.1,0.7,7.9,2.1s2.7,3.5,2.7,6.3c0,1.7-0.5,3.1-1.4,4.3c-0.9,1.2-2.1,2.1-3.7,2.6
	c1.9,0.4,3.4,1.3,4.5,2.8c1.1,1.4,1.7,3.1,1.7,5c0,2.8-0.9,5.1-2.8,6.7c-1.8,1.6-4.4,2.4-7.7,2.4C310.2,48.8,299.5,48.8,299.5,48.8z
	 M302.3,31h7.4c2.3,0,4-0.6,5.3-1.6c1.2-1,1.9-2.5,1.9-4.5c0-2.1-0.6-3.6-1.9-4.6s-3.2-1.5-5.8-1.5h-6.9V31z M302.3,33.3v13.2h8.2
	c2.3,0,4.2-0.6,5.5-1.8c1.4-1.2,2-2.8,2-4.9c0-2-0.7-3.6-2-4.7c-1.3-1.2-3.1-1.7-5.4-1.7L302.3,33.3L302.3,33.3z"/>
<path class="st0" d="M327.6,48.8h-2.7V16.5h2.7V48.8z"/>
<path class="st0" d="M331.5,36.5c0-2.3,0.4-4.4,1.3-6.2s2.2-3.3,3.8-4.3c1.6-1,3.5-1.5,5.5-1.5c3.2,0,5.8,1.1,7.7,3.3
	c2,2.2,3,5.2,3,8.9v0.6c0,2.3-0.4,4.4-1.3,6.2c-0.9,1.9-2.1,3.3-3.8,4.3c-1.7,1-3.5,1.5-5.5,1.5c-3.2,0-5.7-1.1-7.7-3.3
	s-3-5.2-3-8.9V36.5z M334.2,37.3c0,2.9,0.7,5.2,2.2,7s3.4,2.8,5.8,2.8s4.3-0.9,5.8-2.8c1.5-1.8,2.2-4.3,2.2-7.3v-0.5
	c0-1.8-0.3-3.5-1-5s-1.6-2.7-2.9-3.5c-1.2-0.8-2.6-1.2-4.2-1.2c-2.4,0-4.3,0.9-5.8,2.8s-2.2,4.3-2.2,7.3v0.4H334.2z"/>
<path class="st0" d="M355.9,36.7c0-3.7,0.8-6.7,2.5-8.9s3.9-3.3,6.8-3.3c3.3,0,5.7,1.3,7.4,3.9l0.1-3.4h2.5v23.4
	c0,3.1-0.9,5.5-2.6,7.3s-4.1,2.7-7,2.7c-1.7,0-3.3-0.4-4.8-1.1s-2.7-1.7-3.6-3l1.5-1.6c1.9,2.3,4.1,3.4,6.7,3.4c2.2,0,3.9-0.7,5.2-2
	c1.2-1.3,1.9-3.1,1.9-5.4v-3c-1.7,2.4-4.2,3.5-7.4,3.5c-2.8,0-5-1.1-6.7-3.3s-2.5-5.2-2.5-9V36.7z M358.6,37.1
	c0,3.1,0.6,5.5,1.8,7.2c1.2,1.8,2.9,2.6,5.2,2.6c3.3,0,5.6-1.5,6.9-4.4v-11c-0.6-1.5-1.5-2.7-2.7-3.5s-2.6-1.2-4.2-1.2
	c-2.2,0-4,0.9-5.2,2.6C359.2,31.2,358.6,33.7,358.6,37.1z"/>
<g>
	<g>
		<g>
			<g>
				<g>
					<defs>
						<polygon id="SVGID_1_" points="47.8,17.6 25.3,4.8 25.3,57.4 34.3,52.2 34.3,37.4 41.1,41.3 41,31.2 34.3,27.3 34.3,21.4 
							47.8,29.3 						"/>
					</defs>
					<clipPath id="SVGID_2_">
						<use xlink:href="#SVGID_1_"  style="overflow:visible;"/>
					</clipPath>
					<g class="st1">
						
							<linearGradient id="SVGID_3_" gradientUnits="userSpaceOnUse" x1="-1.3" y1="-995.05" x2="53.9" y2="-995.05" gradientTransform="matrix(1 0 0 -1 0 -964)">
							<stop  offset="0" style="stop-color:#FF6F00"/>
							<stop  offset="1" style="stop-color:#FFA800"/>
						</linearGradient>
						<path class="st2" d="M-1.3,4.6h55.2v52.9H-1.3V4.6z"/>
					</g>
				</g>
			</g>
		</g>
	</g>
</g>
<g>
	<g>
		<g>
			<g>
				<g>
					<defs>
						<polygon id="SVGID_4_" points="0.8,17.6 23.3,4.8 23.3,57.4 14.3,52.2 14.3,21.4 0.8,29.3 						"/>
					</defs>
					<clipPath id="SVGID_5_">
						<use xlink:href="#SVGID_4_"  style="overflow:visible;"/>
					</clipPath>
					<g class="st3">
						
							<linearGradient id="SVGID_6_" gradientUnits="userSpaceOnUse" x1="-1.6" y1="-995.05" x2="53.6" y2="-995.05" gradientTransform="matrix(1 0 0 -1 0 -964)">
							<stop  offset="0" style="stop-color:#FF6F00"/>
							<stop  offset="1" style="stop-color:#FFA800"/>
						</linearGradient>
						<path class="st4" d="M-1.6,4.6h55.2v52.9H-1.6V4.6z"/>
					</g>
				</g>
			</g>
		</g>
	</g>
</g>
</svg>
